<?xml version="1.0" standalone="no"?>
<!DOCTYPE svg PUBLIC "-//W3C//DTD SVG 20010904//EN"
 "http://www.w3.org/TR/2001/REC-SVG-20010904/DTD/svg10.dtd">
<svg version="1.0" xmlns="http://www.w3.org/2000/svg"
 width="558.000000pt" height="447.000000pt" viewBox="0 0 558.000000 447.000000"
 preserveAspectRatio="xMidYMid meet">

<g transform="translate(0.000000,447.000000) scale(0.100000,-0.100000)"
fill="#000000" stroke="none">
<path d="M2751 3729 c-145 -25 -309 -100 -415 -187 -100 -83 -194 -227 -230
-353 l-17 -57 -57 -6 c-88 -11 -150 -35 -193 -75 -34 -33 -39 -44 -39 -83 0
-31 6 -51 20 -66 50 -53 2 -51 1056 -54 l979 -3 47 -22 c33 -15 49 -29 54 -47
13 -52 -41 -126 -90 -126 -12 0 -38 16 -57 36 -96 101 -202 106 -281 14 -23
-27 -55 -55 -70 -61 -38 -16 -89 3 -148 56 -57 51 -106 69 -160 60 -36 -6 -63
-22 -142 -86 -38 -31 -107 -31 -145 -1 -109 87 -140 100 -207 88 -19 -4 -60
-27 -92 -51 -91 -71 -160 -78 -198 -19 -55 82 -218 84 -279 2 -31 -41 -77 -39
-112 6 -51 67 -136 74 -189 15 -25 -28 -28 -38 -24 -84 8 -93 75 -150 203
-174 39 -7 336 -11 901 -11 605 0 850 -3 868 -11 29 -14 51 -59 41 -89 -16
-49 5 -48 -865 -53 l-815 -5 -314 -40 c-172 -23 -316 -44 -320 -48 -3 -4 128
-4 292 0 163 4 297 4 297 0 0 -3 -13 -23 -29 -43 -65 -82 -72 -125 -23 -138
21 -5 30 -1 47 22 82 115 149 155 260 155 108 -1 188 -46 241 -137 22 -36 31
-44 52 -41 40 5 49 30 28 76 -10 22 -31 53 -47 68 -16 15 -29 31 -29 36 0 4
162 8 360 8 198 0 360 -3 360 -6 0 -4 -14 -22 -31 -41 -67 -77 -74 -134 -17
-141 21 -3 31 6 57 47 58 89 136 131 245 131 99 -1 183 -50 242 -142 28 -43
66 -51 84 -18 14 26 -7 73 -61 134 l-40 45 28 15 c117 60 116 220 0 284 -29
16 -103 17 -932 22 -959 5 -918 3 -972 53 -29 26 -32 77 -5 77 10 0 31 -14 48
-31 71 -76 174 -78 232 -4 44 55 118 53 161 -6 62 -84 196 -76 315 20 54 43
91 42 147 -8 63 -55 100 -71 164 -71 60 0 116 22 150 60 26 29 68 50 99 50 16
0 45 -17 77 -46 63 -56 103 -74 164 -74 64 0 106 20 150 74 61 74 107 72 183
-9 66 -70 141 -73 214 -7 53 48 70 83 70 149 1 85 -42 131 -147 158 -51 13
-190 15 -1010 15 -985 0 -1000 1 -1000 40 0 8 20 26 45 40 l45 25 877 5 877 5
23 23 c26 26 28 77 7 166 -51 216 -243 386 -534 472 -78 23 -112 27 -255 30
-91 1 -189 -1 -219 -7z m444 -108 c44 -12 122 -42 173 -67 166 -80 290 -231
308 -371 l7 -53 -747 0 c-648 0 -746 2 -746 15 0 29 41 124 79 181 100 154
256 256 465 305 113 26 345 21 461 -10z"/>
<path d="M1896 2383 c-15 -3 -90 -15 -165 -28 l-136 -23 181 -1 c150 -1 184 2
194 14 10 12 10 18 0 30 -12 15 -20 16 -74 8z"/>
<path d="M2199 2112 c-34 -17 -65 -44 -84 -71 -27 -39 -30 -50 -30 -125 0 -73
3 -87 28 -124 43 -65 97 -96 177 -100 52 -3 75 0 106 16 148 76 179 258 63
369 -73 69 -170 82 -260 35z m172 -77 c61 -32 87 -121 54 -185 -34 -67 -123
-92 -193 -56 -43 22 -77 93 -68 142 8 38 49 92 80 104 34 14 95 11 127 -5z"/>
<path d="M2266 1954 c-23 -22 -20 -71 3 -84 29 -15 56 -12 74 8 47 52 -28 126
-77 76z"/>
<path d="M3425 2121 c-22 -10 -54 -34 -72 -52 -136 -143 -32 -379 167 -379 71
0 126 26 172 80 82 95 70 238 -27 318 -65 53 -166 67 -240 33z m161 -87 c38
-18 74 -76 74 -119 0 -41 -37 -103 -72 -121 -92 -47 -208 16 -208 114 0 110
105 174 206 126z"/>
<path d="M3480 1950 c-24 -24 -25 -38 -4 -68 35 -51 117 -8 95 50 -16 42 -59
50 -91 18z"/>
<path d="M1595 2075 c-110 -13 -213 -26 -230 -28 -16 -2 87 -4 230 -3 l260 1
0 25 c0 34 -15 34 -260 5z"/>
<path d="M2246 1519 c-19 -15 -26 -30 -26 -53 0 -59 58 -87 95 -46 15 16 17
26 9 48 -12 33 -52 42 -71 16 -17 -23 -28 -11 -13 15 8 16 20 21 49 21 43 0
60 -15 71 -63 8 -32 8 -32 9 -4 1 33 -46 87 -77 87 -11 0 -31 -9 -46 -21z"/>
<path d="M1635 1411 c-12 -5 -27 -16 -34 -25 -9 -11 -1 -9 27 6 38 21 44 22
147 10 60 -6 110 -14 112 -16 2 -2 -35 -65 -84 -140 -178 -276 -243 -377 -243
-381 0 -3 33 -2 73 1 48 4 100 1 158 -10 120 -23 152 -21 188 10 24 20 31 33
29 57 l-1 32 -4 -32 c-9 -69 -74 -88 -198 -58 -33 8 -77 15 -97 15 -40 0 -48
12 -25 39 8 9 54 79 102 156 49 77 115 180 147 229 32 49 57 91 54 93 -2 2
-37 6 -78 7 -40 2 -113 6 -163 9 -49 4 -99 3 -110 -2z"/>
<path d="M2346 1405 c-7 -20 -47 -35 -116 -45 -37 -5 -44 -8 -22 -9 l32 -1 0
-240 0 -240 -31 0 c-16 0 -28 -3 -26 -7 3 -5 49 -6 104 -4 54 3 83 7 66 9
l-33 3 0 246 c0 239 1 247 22 270 12 13 19 25 16 28 -3 3 -8 -1 -12 -10z"/>
<path d="M2704 1406 c-35 -16 -74 -61 -74 -85 0 -34 30 -62 62 -59 37 4 53 26
44 61 -5 21 -13 27 -33 27 -14 0 -31 -7 -38 -17 -8 -11 -14 -13 -19 -4 -4 6 5
24 22 40 48 49 163 54 210 11 29 -27 45 -94 37 -154 -10 -79 -29 -101 -105
-117 -26 -6 -18 -7 30 -5 117 6 164 51 164 158 1 65 -19 100 -74 132 -43 26
-181 33 -226 12z"/>
<path d="M3295 1405 c-51 -28 -65 -46 -65 -85 0 -45 14 -60 57 -60 25 0 36 6
44 24 24 51 -31 87 -74 49 -18 -17 -19 -17 -16 7 5 34 77 70 139 70 95 0 136
-56 128 -176 -5 -79 -33 -114 -100 -125 l-43 -6 55 -2 c109 -2 180 60 180 157
0 103 -62 153 -195 159 -60 3 -87 0 -110 -12z"/>
<path d="M3765 1399 c26 -7 40 -28 108 -162 l77 -153 0 -107 0 -106 -32 -4
c-18 -2 1 -5 42 -5 l75 -2 -3 107 c-2 60 -7 112 -13 118 -13 13 -11 25 4 25
18 1 146 183 153 219 9 46 -17 81 -61 81 -43 0 -67 -24 -63 -64 2 -23 10 -33
32 -41 24 -8 31 -6 47 14 18 22 18 25 3 48 -20 32 -10 42 17 17 32 -29 17 -74
-57 -175 -36 -49 -67 -89 -70 -89 -4 0 -134 256 -134 265 0 2 15 9 33 14 25 7
7 9 -78 9 -80 0 -102 -2 -80 -9z"/>
<path d="M1617 1353 c-16 -16 -19 -16 -27 -3 -8 12 -10 9 -10 -12 0 -33 31
-68 60 -68 20 0 60 32 60 48 0 17 -32 52 -48 52 -10 0 -26 -8 -35 -17z"/>
<path d="M2648 1047 l-3 -172 -30 -6 c-19 -4 -1 -7 50 -8 44 -1 90 -4 103 -7
13 -4 22 -2 22 5 0 6 -14 11 -30 11 l-30 0 1 166 c0 91 -1 167 -3 169 -2 1
-20 5 -40 8 l-38 6 -2 -172z"/>
<path d="M3240 1046 l0 -176 -32 0 c-17 0 -28 -3 -24 -7 9 -9 206 -10 206 0 0
4 -16 7 -35 7 l-35 0 0 110 c0 93 3 110 18 119 16 10 16 10 0 11 -15 0 -18 9
-18 50 0 46 -2 50 -24 50 -13 0 -31 3 -40 6 -14 5 -16 -13 -16 -170z"/>
<path d="M1915 988 c-43 -24 -48 -69 -10 -94 23 -15 27 -15 50 0 31 20 32 39
3 66 -23 22 -10 27 25 9 21 -10 21 -9 -2 10 -26 24 -38 25 -66 9z"/>
<path d="M1895 751 c-3 -6 -1 -11 4 -11 16 0 15 -177 -1 -183 -7 -3 2 -6 21
-6 26 -1 31 2 23 12 -6 7 -12 53 -14 102 -3 83 -15 114 -33 86z"/>
<path d="M1538 734 c-85 -45 -51 -184 45 -184 101 0 133 148 41 186 -41 17
-52 17 -86 -2z m88 -12 c40 -26 45 -102 9 -137 -31 -32 -69 -32 -100 0 -32 31
-34 96 -5 125 20 20 74 27 96 12z"/>
<path d="M2458 739 c16 -17 16 -161 0 -177 -9 -9 -4 -12 23 -11 18 0 28 3 22
6 -7 2 -13 22 -13 43 0 37 1 39 38 43 l37 4 -37 1 c-37 2 -38 3 -38 42 0 37 2
40 28 41 40 2 56 -2 65 -14 5 -8 7 -4 5 8 -3 17 -12 20 -73 23 -56 2 -68 1
-57 -9z"/>
<path d="M3020 731 c15 -30 3 -48 -28 -43 -49 7 -85 -59 -59 -108 11 -22 19
-25 70 -26 40 -1 55 2 47 10 -5 5 -10 50 -10 98 0 72 -3 88 -15 88 -12 0 -13
-4 -5 -19z m1 -72 c14 -27 3 -85 -18 -93 -27 -11 -51 4 -58 35 -13 59 49 107
76 58z"/>
<path d="M3165 650 l0 -100 58 0 c51 0 62 4 88 29 31 31 39 83 19 122 -16 29
-64 49 -117 49 l-48 0 0 -100z m121 72 c19 -12 34 -49 34 -82 0 -43 -39 -80
-85 -80 l-35 0 0 85 0 85 38 0 c20 0 42 -4 48 -8z"/>
<path d="M3538 659 c3 -68 0 -94 -10 -100 -8 -6 -1 -8 22 -8 19 0 29 3 23 6
-9 3 -13 33 -13 99 0 68 -3 94 -12 94 -10 0 -12 -23 -10 -91z"/>
<path d="M3626 741 c-4 -7 -5 -15 -2 -18 9 -9 19 4 14 18 -4 11 -6 11 -12 0z"/>
<path d="M1990 730 c0 -5 5 -10 10 -10 6 0 10 5 10 10 0 6 -4 10 -10 10 -5 0
-10 -4 -10 -10z"/>
<path d="M1720 676 c14 -14 12 -100 -2 -114 -9 -9 -4 -12 23 -11 18 0 28 3 22
6 -8 3 -13 25 -13 59 0 49 2 54 24 60 38 9 46 -2 46 -67 0 -54 2 -59 22 -59
17 0 19 3 10 12 -7 7 -12 29 -12 51 0 64 -12 76 -75 74 -36 -1 -52 -4 -45 -11z"/>
<path d="M1985 620 c0 -68 1 -70 25 -70 19 0 21 3 12 12 -7 7 -12 38 -12 70 0
40 -4 58 -12 58 -9 0 -13 -21 -13 -70z"/>
<path d="M2070 676 c15 -15 13 -113 -2 -119 -7 -3 3 -6 22 -6 22 0 30 2 22 8
-19 12 -12 101 9 114 34 21 49 2 49 -63 0 -55 2 -60 22 -60 17 0 19 3 10 12
-7 7 -12 33 -12 59 0 26 -6 51 -12 57 -17 13 -122 12 -108 -2z"/>
<path d="M2257 672 c-25 -28 -22 -87 5 -106 26 -18 56 -20 78 -6 11 7 6 8 -17
4 -37 -7 -63 8 -63 37 0 16 8 19 45 19 40 0 45 2 45 23 0 13 -5 28 -12 35 -18
18 -63 14 -81 -6z m74 -8 c10 -13 10 -17 -2 -25 -19 -12 -56 -11 -64 1 -9 15
13 40 35 40 10 0 23 -7 31 -16z"/>
<path d="M2627 672 c-23 -25 -22 -85 1 -105 44 -40 102 -8 102 55 0 60 -65 92
-103 50z m81 -24 c28 -59 -36 -117 -72 -66 -9 12 -16 29 -16 38 0 9 7 26 16
38 21 30 55 25 72 -10z"/>
<path d="M2787 673 c-28 -31 -30 -66 -7 -96 41 -51 110 -24 110 43 0 29 -6 43
-22 54 -29 21 -61 20 -81 -1z m72 -7 c17 -21 10 -87 -11 -100 -23 -14 -50 2
-62 37 -18 50 42 101 73 63z"/>
<path d="M3396 674 c-32 -32 -28 -92 8 -116 16 -11 64 -10 71 2 4 6 -5 8 -22
5 -33 -6 -48 2 -57 33 -7 21 -5 22 43 22 44 0 51 3 51 19 0 45 -62 68 -94 35z
m70 -11 c16 -16 15 -18 -11 -26 -16 -6 -35 -6 -47 0 -19 8 -20 10 -4 26 22 22
40 22 62 0z"/>
<path d="M3618 678 c16 -16 16 -100 0 -116 -9 -9 -6 -12 17 -12 23 0 26 3 17
12 -7 7 -12 38 -12 70 0 48 -3 58 -17 58 -13 0 -14 -3 -5 -12z"/>
<path d="M3697 678 c5 -7 20 -39 33 -71 12 -32 27 -56 32 -55 6 2 21 30 34 63
13 32 30 63 37 67 7 5 -1 8 -22 8 -25 0 -31 -3 -24 -12 12 -15 -7 -80 -24 -85
-14 -5 -37 62 -29 82 4 11 -2 15 -21 15 -19 0 -23 -3 -16 -12z"/>
<path d="M3878 680 c-34 -21 -31 -98 6 -122 16 -11 64 -10 71 2 4 6 -5 7 -23
4 -31 -6 -62 15 -62 42 0 10 13 14 50 14 43 0 50 3 50 19 0 41 -51 64 -92 41z
m61 -9 c8 -5 11 -16 8 -25 -7 -17 -29 -20 -61 -7 -17 7 -17 8 -2 24 19 19 34
21 55 8z"/>
<path d="M4008 678 c16 -16 16 -100 0 -116 -9 -9 -7 -12 12 -12 24 0 25 3 25
57 0 56 1 58 30 64 25 5 27 7 12 14 -10 4 -23 2 -31 -4 -10 -8 -16 -9 -21 -1
-3 5 -14 10 -23 10 -12 0 -13 -3 -4 -12z"/>
<path d="M4132 673 c30 -37 50 -100 43 -134 -11 -50 4 -29 42 58 18 42 39 81
46 85 7 5 2 8 -15 8 -18 0 -26 -4 -22 -13 5 -13 -22 -87 -31 -87 -9 0 -36 74
-31 87 4 9 -3 13 -21 13 -24 0 -25 -2 -11 -17z"/>
<path d="M2492 416 c7 -8 15 -12 17 -11 5 6 -10 25 -20 25 -5 0 -4 -6 3 -14z"/>
<path d="M2830 386 c0 -42 1 -43 28 -37 26 5 26 6 4 9 -21 3 -23 8 -20 38 2
19 0 34 -4 34 -4 0 -8 -20 -8 -44z"/>
<path d="M2889 417 c7 -9 11 -27 8 -38 -4 -15 -3 -19 4 -12 15 15 7 55 -11 61
-13 5 -13 3 -1 -11z"/>
<path d="M3004 415 c-3 -8 -4 -20 -2 -27 3 -7 7 -1 10 15 6 29 1 36 -8 12z"/>
<path d="M3170 419 c0 -5 5 -7 10 -4 6 3 10 8 10 11 0 2 -4 4 -10 4 -5 0 -10
-5 -10 -11z"/>
<path d="M3250 410 c0 -11 2 -20 4 -20 2 0 6 9 9 20 3 11 1 20 -4 20 -5 0 -9
-9 -9 -20z"/>
<path d="M2453 373 c9 -2 23 -2 30 0 6 3 -1 5 -18 5 -16 0 -22 -2 -12 -5z"/>
<path d="M3191 370 c0 -8 4 -22 9 -30 12 -18 12 -2 0 25 -6 13 -9 15 -9 5z"/>
<path d="M2587 363 c-4 -3 -7 -11 -7 -17 0 -6 5 -5 12 2 6 6 9 14 7 17 -3 3
-9 2 -12 -2z"/>
<path d="M3006 362 c-2 -4 13 -6 35 -4 21 2 39 6 39 8 0 7 -69 4 -74 -4z"/>
<path d="M2490 310 c-9 -6 -10 -10 -3 -10 6 0 15 5 18 10 8 12 4 12 -15 0z"/>
<path d="M2580 310 c0 -5 5 -10 11 -10 5 0 7 5 4 10 -3 6 -8 10 -11 10 -2 0
-4 -4 -4 -10z"/>
<path d="M2830 310 c0 -5 5 -10 11 -10 5 0 7 5 4 10 -3 6 -8 10 -11 10 -2 0
-4 -4 -4 -10z"/>
<path d="M3008 308 c6 -6 18 -8 28 -6 14 3 12 5 -9 10 -19 3 -25 2 -19 -4z"/>
<path d="M3210 310 c0 -5 5 -10 10 -10 6 0 10 5 10 10 0 6 -4 10 -10 10 -5 0
-10 -4 -10 -10z"/>
<path d="M2438 303 c6 -2 18 -2 25 0 6 3 1 5 -13 5 -14 0 -19 -2 -12 -5z"/>
</g>
</svg>
